<svg width="100" height="100" viewBox="0 0 100 100" fill="none" xmlns="http://www.w3.org/2000/svg">
<path d="M14.9896 100L0 14.9896L85.0104 0L100 85.0104L14.9896 100Z" fill="#87E64B"/>
<path d="M48.0617 52.3515C54.2429 52.3515 59.1228 47.3903 59.1228 41.2904C59.1228 35.1905 54.1616 30.2293 48.0617 30.2293C41.9618 30.2293 37.0006 35.1905 37.0006 41.2904C37.0006 47.3903 41.9618 52.3515 48.0617 52.3515ZM63.3521 75.9378C60.9935 75.9378 59.1228 74.0671 59.1228 71.7898V57.2314C56.0322 59.4274 52.2096 60.7287 48.0617 60.7287C37.3259 60.7287 28.7047 52.0262 28.7047 41.2904C28.7047 30.5546 37.3259 21.8521 48.0617 21.8521C58.7975 21.8521 67.5 30.5546 67.5 41.2904V71.7898C67.5 74.0671 65.6294 75.9378 63.3521 75.9378Z" fill="#FFF5ED"/>
</svg>
