<svg width="147" height="47" viewBox="0 0 147 47" fill="none" xmlns="http://www.w3.org/2000/svg">
<path d="M43.7822 24.8994C41.2285 24.4064 39.3857 22.1397 39.3857 19.5596V12.04C39.3857 10.9201 38.4657 10 37.3457 10C36.1857 10 35.2656 10.92 35.2656 12.04V19.5596C35.2656 24.7388 39.3838 28.9532 44.5244 29.1123L46.3379 39.3926L6.94629 46.3389L0 6.94629L39.3926 0L43.7822 24.8994ZM22.5195 10C17.2399 10.0003 13.0002 14.2799 13 19.5596C13 24.8394 17.2397 29.1199 22.5195 29.1201C24.5594 29.1201 26.44 28.4803 27.96 27.4004V34.5596C27.96 35.6796 28.88 36.5996 30.04 36.5996C31.16 36.5996 32.0801 35.6796 32.0801 34.5596V19.5596C32.0798 14.2798 27.7994 10 22.5195 10ZM22.5195 14.1201C25.5194 14.1201 27.9597 16.5598 27.96 19.5596C27.96 22.5596 25.5595 25 22.5195 25C19.5197 24.9997 17.0801 22.5594 17.0801 19.5596C17.0803 16.5599 19.5199 14.1204 22.5195 14.1201Z" fill="#1A1A1A"/>
<path d="M52.3057 10C53.4656 10 54.3857 10.9201 54.3857 12.04V27.04C54.3857 28.2 53.4656 29.1201 52.3057 29.1201C51.3058 29.1201 50.4658 28.3602 50.3057 27.3604C48.7457 28.4803 46.8651 29.1201 44.8252 29.1201C44.7245 29.1201 44.6243 29.1154 44.5244 29.1123L43.7812 24.8984C44.1179 24.9635 44.4664 25 44.8252 25C47.8252 25 50.2656 22.5596 50.2656 19.5596V12.04C50.2656 10.92 51.1857 10 52.3057 10ZM59.6104 10C60.7303 10 61.6504 10.9201 61.6504 12.04V27.04C61.6504 28.2 60.7303 29.1201 59.6104 29.1201C58.4904 29.1201 57.5703 28.2 57.5703 27.04V12.04C57.5703 10.92 58.4904 10 59.6104 10ZM80.8359 10C81.9959 10 82.876 10.92 82.876 12.04C82.876 12.6398 82.6361 13.1596 82.2363 13.5596L71.5957 25H80.916C82.036 25 82.9561 25.9201 82.9561 27.04C82.956 28.2 82.036 29.1201 80.916 29.1201H66.916V29.0801C65.756 29.0801 64.836 28.12 64.8359 27.04C64.8359 26.52 65.0355 26.0396 65.3955 25.6396L76.1562 14.1201H66.916C65.796 14.1201 64.876 13.2 64.876 12.04C64.876 10.92 65.796 10 66.916 10H80.8359ZM102.164 10C103.324 10 104.204 10.92 104.204 12.04C104.204 12.6398 103.964 13.1596 103.564 13.5596L92.9238 25H102.244C103.364 25 104.284 25.9201 104.284 27.04C104.284 28.2 103.364 29.1201 102.244 29.1201H88.2441V29.0801C87.0842 29.0801 86.1641 28.12 86.1641 27.04C86.1641 26.52 86.3636 26.0396 86.7236 25.6396L97.4844 14.1201H88.2441C87.1242 14.1201 86.2041 13.2 86.2041 12.04C86.2041 10.92 87.1241 10 88.2441 10H102.164ZM115.06 10C120.099 10 124.58 14.0398 124.58 19.5596C124.58 20.6796 123.66 21.5996 122.54 21.5996H109.98C110.78 23.5595 112.7 24.9998 115.06 25C116.38 25 117.74 24.4796 118.66 23.6396C119.06 23.2799 119.54 23.1202 120.02 23.1201C121.1 23.1201 122.06 24.0802 122.06 25.1602C122.06 25.7601 121.82 26.3198 121.34 26.7197C119.7 28.1997 117.34 29.1201 115.06 29.1201C109.7 29.1199 105.5 24.7594 105.5 19.5596C105.5 14.2799 109.78 10.0002 115.06 10ZM137.325 10C142.605 10 146.845 14.2798 146.846 19.5596V27.04C146.846 28.2 145.926 29.1201 144.806 29.1201C143.686 29.1201 142.766 28.2 142.766 27.04V19.5596C142.765 16.5998 140.405 14.1201 137.325 14.1201C134.326 14.1203 131.886 16.5599 131.886 19.5596V27.04C131.886 28.2 130.966 29.1201 129.806 29.1201C128.686 29.1201 127.766 28.2 127.766 27.04V12.04C127.766 10.92 128.686 10 129.806 10C130.846 10 131.686 10.7599 131.846 11.7197C133.406 10.6399 135.285 10.0001 137.325 10ZM115.06 14.1201C112.82 14.1203 110.821 15.48 109.98 17.5195H120.1C119.259 15.4798 117.259 14.1201 115.06 14.1201Z" fill="#1A1A1A"/>
</svg>
